<?xml version="1.0" standalone="yes"?>

<svg version="1.1" viewBox="0.0 0.0 505.34120734908134 283.2309711286089" fill="none" stroke="none" stroke-linecap="square" stroke-miterlimit="10" xmlns="http://www.w3.org/2000/svg" xmlns:xlink="http://www.w3.org/1999/xlink"><clipPath id="p.0"><path d="m0 0l505.34122 0l0 283.23096l-505.34122 0l0 -283.23096z" clip-rule="nonzero"></path></clipPath><g clip-path="url(#p.0)"><path fill="#000000" fill-opacity="0.0" d="m0 0l505.34122 0l0 283.23096l-505.34122 0z" fill-rule="nonzero"></path><path fill="#000000" fill-opacity="0.0" d="m192.0 64.0l-120.0 0" fill-rule="nonzero"></path><path stroke="#980000" stroke-width="4.0" stroke-linejoin="round" stroke-linecap="butt" d="m192.0 64.0l-120.0 0" fill-rule="nonzero"></path><path fill="#000000" fill-opacity="0.0" d="m312.0 64.0l-120.0 0" fill-rule="nonzero"></path><path stroke="#980000" stroke-width="4.0" stroke-linejoin="round" stroke-linecap="butt" d="m312.0 64.0l-120.0 0" fill-rule="nonzero"></path><path fill="#000000" fill-opacity="0.0" d="m432.0 64.0l-120.0 0" fill-rule="nonzero"></path><path stroke="#980000" stroke-width="4.0" stroke-linejoin="round" stroke-linecap="butt" d="m432.0 64.0l-120.0 0" fill-rule="nonzero"></path><path fill="#000000" fill-opacity="0.0" d="m192.0 56.0l0 16.0" fill-rule="nonzero"></path><path stroke="#000000" stroke-width="2.0" stroke-linejoin="round" stroke-linecap="butt" d="m192.0 56.0l0 16.0" fill-rule="nonzero"></path><path fill="#000000" fill-opacity="0.0" d="m312.0 56.0l0 16.0" fill-rule="nonzero"></path><path stroke="#000000" stroke-width="2.0" stroke-linejoin="round" stroke-linecap="butt" d="m312.0 56.0l0 16.0" fill-rule="nonzero"></path><path fill="#000000" fill-opacity="0.0" d="m240.0 112.0l-168.0 0" fill-rule="nonzero"></path><path stroke="#980000" stroke-width="4.0" stroke-linejoin="round" stroke-linecap="butt" d="m240.0 112.0l-168.0 0" fill-rule="nonzero"></path><path fill="#000000" fill-opacity="0.0" d="m408.0 112.0l-168.0 0" fill-rule="nonzero"></path><path stroke="#980000" stroke-width="4.0" stroke-linejoin="round" stroke-linecap="butt" d="m408.0 112.0l-168.0 0" fill-rule="nonzero"></path><path fill="#000000" fill-opacity="0.0" d="m240.0 104.0l0 16.0" fill-rule="nonzero"></path><path stroke="#000000" stroke-width="2.0" stroke-linejoin="round" stroke-linecap="butt" d="m240.0 104.0l0 16.0" fill-rule="nonzero"></path><path fill="#000000" fill-opacity="0.0" d="m120.0 160.0l-48.0 0" fill-rule="nonzero"></path><path stroke="#0000ff" stroke-width="4.0" stroke-linejoin="round" stroke-linecap="butt" d="m120.0 160.0l-48.0 0" fill-rule="nonzero"></path><path fill="#000000" fill-opacity="0.0" d="m168.0 160.0l-48.0 0" fill-rule="nonzero"></path><path stroke="#0000ff" stroke-width="4.0" stroke-linejoin="round" stroke-linecap="butt" d="m168.0 160.0l-48.0 0" fill-rule="nonzero"></path><path fill="#000000" fill-opacity="0.0" d="m120.0 152.0l0 16.0" fill-rule="nonzero"></path><path stroke="#000000" stroke-width="2.0" stroke-linejoin="round" stroke-linecap="butt" d="m120.0 152.0l0 16.0" fill-rule="nonzero"></path><path fill="#000000" fill-opacity="0.0" d="m168.0 152.0l0 16.0" fill-rule="nonzero"></path><path stroke="#000000" stroke-width="2.0" stroke-linejoin="round" stroke-linecap="butt" d="m168.0 152.0l0 16.0" fill-rule="nonzero"></path><path fill="#000000" fill-opacity="0.0" d="m216.0 160.0l-48.0 0" fill-rule="nonzero"></path><path stroke="#0000ff" stroke-width="4.0" stroke-linejoin="round" stroke-linecap="butt" d="m216.0 160.0l-48.0 0" fill-rule="nonzero"></path><path fill="#000000" fill-opacity="0.0" d="m168.0 208.0l-96.0 0" fill-rule="nonzero"></path><path stroke="#0000ff" stroke-width="4.0" stroke-linejoin="round" stroke-linecap="butt" d="m168.0 208.0l-96.0 0" fill-rule="nonzero"></path><path fill="#000000" fill-opacity="0.0" d="m168.0 200.0l0 16.0" fill-rule="nonzero"></path><path stroke="#000000" stroke-width="2.0" stroke-linejoin="round" stroke-linecap="butt" d="m168.0 200.0l0 16.0" fill-rule="nonzero"></path><path fill="#000000" fill-opacity="0.0" d="m264.0 208.0l-96.0 0" fill-rule="nonzero"></path><path stroke="#0000ff" stroke-width="4.0" stroke-linejoin="round" stroke-linecap="butt" d="m264.0 208.0l-96.0 0" fill-rule="nonzero"></path></g></svg>

